<?xml version="1.0" standalone="no"?>
<!DOCTYPE svg PUBLIC "-//W3C//DTD SVG 20010904//EN"
 "http://www.w3.org/TR/2001/REC-SVG-20010904/DTD/svg10.dtd">
<svg version="1.0" xmlns="http://www.w3.org/2000/svg"
 width="1197.000000pt" height="900.000000pt" viewBox="0 0 1197.000000 900.000000"
 preserveAspectRatio="xMidYMid meet">
<metadata>
Created by potrace 1.16, written by Peter Selinger 2001-2019
</metadata>
<g transform="translate(0.000000,900.000000) scale(0.100000,-0.100000)"
fill="#000000" stroke="none">
<path d="M7344 8979 c-37 -41 -69 -49 -212 -54 -272 -8 -497 -35 -548 -65 -17
-10 -57 -25 -88 -34 -31 -9 -84 -35 -119 -57 l-62 -41 -85 5 c-47 3 -112 15
-144 26 -33 12 -70 21 -83 21 -13 0 -33 4 -43 10 -17 9 -265 23 -425 24 -94 1
-358 -21 -471 -39 -50 -8 -142 -33 -205 -56 -63 -22 -156 -54 -208 -70 -170
-52 -265 -129 -347 -280 -60 -110 -77 -159 -99 -293 -19 -116 -14 -127 43
-107 98 35 142 62 167 105 14 24 25 54 25 68 0 27 78 190 94 197 5 2 20 14 32
26 20 20 21 26 11 63 -10 39 -9 43 18 73 40 41 52 47 159 74 51 12 102 28 115
34 130 70 475 80 599 18 28 -14 52 -23 52 -20 0 4 5 2 12 -5 7 -7 33 -12 58
-12 67 0 95 -33 91 -107 -1 -14 -17 -33 -46 -53 -25 -17 -52 -44 -60 -60 -9
-17 -35 -52 -60 -80 -53 -59 -59 -80 -53 -168 6 -78 27 -124 93 -202 107 -126
109 -127 186 -140 77 -13 90 -22 130 -91 20 -35 35 -48 68 -59 23 -7 53 -27
66 -43 16 -21 28 -28 40 -23 15 5 16 15 10 71 l-7 65 45 52 c57 67 75 104 88
176 11 59 32 102 49 102 6 0 15 -12 21 -27 5 -14 23 -41 39 -60 38 -43 44 -70
31 -133 -6 -28 -11 -90 -11 -138 -1 -72 -5 -98 -28 -151 -28 -65 -34 -72 -87
-87 -23 -7 -36 -21 -54 -59 -13 -27 -23 -59 -23 -70 0 -11 18 -49 39 -85 91
-150 208 -169 359 -61 31 22 79 48 107 57 29 9 66 27 82 38 26 19 42 22 125
19 91 -2 229 -14 333 -29 50 -7 159 3 412 38 133 18 185 20 468 16 224 -3 321
-8 329 -16 23 -23 -9 -34 -119 -43 -59 -4 -153 -13 -208 -20 -55 -7 -154 -13
-220 -14 -110 -1 -124 -3 -171 -28 -61 -33 -203 -65 -341 -77 -70 -6 -120 -17
-161 -34 -33 -14 -93 -30 -134 -36 -40 -6 -113 -19 -163 -28 -68 -12 -161 -16
-385 -18 -162 0 -340 -7 -395 -13 -216 -26 -276 -29 -450 -27 -237 5 -378 -22
-450 -85 -23 -20 -45 -30 -71 -31 -55 -2 -415 21 -425 28 -23 14 -414 27 -819
28 -436 1 -448 2 -600 28 -85 15 -249 38 -365 52 -245 30 -330 51 -440 110
-115 62 -257 109 -290 96 -42 -16 -79 -12 -137 15 -83 39 -83 40 -96 -77 -17
-149 -15 -190 18 -313 49 -182 144 -347 273 -477 247 -247 619 -542 1029 -817
203 -136 207 -147 92 -260 -42 -42 -88 -93 -101 -114 -14 -22 -52 -73 -85
-113 -55 -69 -86 -118 -175 -281 -33 -60 -55 -81 -216 -204 -45 -34 -61 -75
-48 -120 10 -34 9 -45 -15 -101 -18 -43 -28 -87 -32 -138 -5 -94 11 -145 118
-370 43 -91 81 -176 85 -190 13 -45 62 -134 110 -199 42 -57 56 -67 138 -106
69 -32 106 -58 147 -100 43 -43 67 -59 109 -71 85 -25 95 -41 87 -140 -6 -77
-5 -85 16 -104 25 -23 42 -28 137 -44 50 -9 68 -17 84 -37 17 -24 18 -31 6
-83 -9 -40 -9 -60 -2 -67 16 -16 47 4 73 45 11 19 30 38 40 41 40 13 52 3 191
-153 24 -26 37 -32 70 -32 51 0 106 23 146 62 43 42 51 89 57 323 6 246 26
322 90 341 38 11 55 35 67 93 20 95 27 95 118 6 45 -43 84 -76 87 -72 13 13
-16 155 -50 252 -20 55 -36 108 -36 118 0 35 -34 92 -87 147 -72 74 -116 166
-163 345 -21 83 -51 188 -66 235 -15 47 -33 119 -41 160 -8 41 -35 144 -60
228 -51 172 -50 156 -24 502 19 251 20 258 46 288 33 37 57 22 69 -44 17 -101
31 -137 59 -157 31 -24 87 -28 111 -8 14 12 14 16 1 42 -21 39 -19 83 5 104
27 24 62 13 91 -30 25 -37 54 -51 87 -41 19 6 30 23 56 88 8 21 32 49 55 66
31 22 38 32 28 40 -24 20 -95 31 -254 38 -145 6 -163 8 -163 24 0 27 31 48 95
65 98 25 174 20 321 -23 152 -44 195 -67 209 -107 16 -48 24 -55 60 -55 42 0
65 29 65 85 1 22 5 60 9 84 5 24 5 57 0 76 -13 44 -87 111 -141 125 -138 38
-166 54 -155 84 9 23 101 44 227 52 63 3 132 13 153 20 58 20 80 17 122 -16
21 -16 41 -30 44 -30 3 -1 48 -7 100 -14 118 -17 150 -9 184 43 41 61 112 85
252 84 181 -2 288 -24 258 -54 -14 -14 -103 -37 -193 -50 -41 -6 -106 -23
-145 -38 -38 -16 -101 -38 -140 -50 -81 -26 -118 -47 -159 -90 -24 -25 -28
-36 -23 -66 3 -20 19 -53 34 -73 20 -27 29 -53 34 -100 4 -34 9 -65 12 -69 15
-15 66 14 127 72 71 70 108 89 185 100 28 4 84 16 127 26 149 37 346 19 453
-41 28 -15 83 -38 123 -51 68 -22 75 -22 100 -8 23 13 27 21 25 55 -1 21 7 67
18 102 17 51 19 68 10 94 -10 27 -9 35 6 50 15 14 37 18 117 20 98 2 99 1 124
-27 22 -26 24 -35 18 -84 -27 -236 -29 -439 -5 -517 47 -152 19 -321 -66 -398
-25 -23 -42 -54 -63 -116 -17 -47 -38 -107 -48 -134 -14 -39 -15 -57 -7 -88 8
-30 7 -53 -8 -106 -19 -72 -78 -232 -103 -280 -8 -16 -20 -69 -26 -118 -10
-83 -17 -101 -96 -253 -46 -90 -87 -181 -90 -202 -6 -35 -3 -42 26 -69 31 -29
32 -34 27 -83 -7 -68 -33 -142 -67 -192 -15 -22 -37 -59 -49 -82 -46 -91 -116
-173 -202 -238 -122 -92 -170 -117 -225 -117 -62 0 -88 24 -79 71 11 59 32 88
88 120 109 62 136 108 100 170 -32 55 -46 59 -100 31 -56 -30 -161 -131 -198
-192 -15 -23 -47 -61 -72 -82 -43 -38 -45 -41 -38 -81 5 -39 3 -45 -24 -68
-17 -14 -67 -37 -112 -52 -75 -25 -89 -27 -188 -21 -126 8 -146 1 -115 -41 30
-42 112 -79 206 -93 124 -19 197 -3 345 71 65 33 134 64 153 69 19 4 62 17 95
28 33 11 114 33 180 48 106 24 125 31 161 64 23 21 51 43 62 49 12 6 35 42 52
79 18 37 49 90 70 117 20 28 43 61 50 75 8 14 37 57 67 96 29 39 62 97 73 129
22 65 45 95 70 95 28 0 31 -51 10 -132 -11 -40 -20 -91 -20 -114 0 -24 -10
-61 -26 -89 -35 -67 -42 -192 -12 -225 15 -16 29 -21 57 -18 35 3 36 2 39 -32
10 -106 -110 -285 -240 -358 -26 -15 -50 -33 -53 -41 -14 -36 20 -28 142 33
115 58 139 74 193 133 60 65 86 111 125 216 31 87 63 74 99 -43 14 -43 34
-140 46 -216 43 -278 46 -292 90 -350 38 -50 76 -74 98 -60 5 3 12 32 16 64 4
32 13 68 22 80 20 29 69 40 129 29 84 -15 175 -4 252 32 84 40 117 70 154 143
16 31 42 78 59 104 21 34 30 60 30 90 0 62 5 70 85 129 40 29 94 79 121 111
27 32 74 85 104 119 70 76 162 198 188 250 25 51 42 131 52 258 5 56 14 122
19 147 19 85 13 208 -14 293 -27 86 -31 139 -13 199 10 34 9 42 -9 66 -11 15
-27 28 -36 30 -14 3 -16 -3 -10 -43 6 -46 6 -47 -18 -40 -30 9 -67 31 -96 58
-23 21 -32 67 -13 67 23 0 8 42 -27 77 -21 20 -54 59 -73 85 -19 26 -53 68
-75 94 -36 42 -40 53 -40 99 1 77 37 128 225 320 266 272 320 337 379 451 53
105 81 140 103 131 7 -3 30 -45 52 -94 21 -48 56 -125 77 -170 22 -45 39 -87
39 -92 0 -6 12 -40 26 -76 23 -57 53 -95 75 -95 4 0 21 23 38 50 50 81 89 62
110 -53 13 -71 26 -97 51 -97 21 0 60 44 60 69 0 9 9 30 20 46 13 19 20 47 20
76 0 33 7 55 22 75 13 15 25 48 28 73 5 50 5 50 91 35 30 -5 41 -1 78 30 24
20 48 33 54 29 42 -24 106 -89 112 -111 8 -33 64 -132 74 -132 13 0 50 91 69
165 16 66 19 70 47 73 20 2 44 -6 69 -23 50 -34 66 -27 66 27 0 67 9 84 50
103 21 9 47 30 59 46 17 23 29 29 60 29 22 0 47 -3 56 -6 9 -4 50 -47 91 -96
63 -77 74 -95 74 -128 0 -21 7 -43 15 -50 17 -14 18 -12 32 55 7 30 15 42 35
49 22 8 32 4 69 -27 23 -21 49 -37 57 -37 8 0 30 14 50 31 30 27 40 30 76 25
72 -10 83 14 55 121 -11 43 -29 95 -40 116 -25 49 -24 56 7 67 23 9 26 14 20
42 -3 17 -27 67 -52 110 -29 49 -49 97 -54 130 -4 29 -15 74 -23 100 -15 44
-15 48 3 71 11 13 19 37 18 53 -1 16 2 46 6 66 8 35 6 39 -42 83 -48 45 -64
78 -98 202 -2 7 -28 26 -58 43 -48 27 -57 37 -69 78 -7 26 -37 79 -65 118 -54
73 -63 103 -37 124 10 8 15 30 15 65 0 39 5 56 20 70 39 36 18 137 -65 310
-36 76 -69 131 -100 162 -25 26 -45 51 -45 56 0 5 -35 46 -79 91 -43 45 -90
105 -105 133 -23 46 -36 58 -135 118 -96 57 -114 72 -140 118 -39 68 -70 95
-166 146 -44 23 -101 62 -126 87 -38 37 -67 53 -178 94 -139 52 -372 169 -435
219 -24 19 -54 32 -84 36 -77 11 -286 53 -316 64 -15 6 -55 11 -89 11 -82 0
-190 32 -252 74 -100 67 -122 71 -242 36 -99 -28 -158 -23 -207 21 l-34 29
-159 0 c-150 0 -161 -1 -179 -21z m1456 -1648 c28 -11 69 -35 90 -55 43 -38
59 -42 107 -26 25 9 45 5 128 -24 53 -19 106 -43 116 -52 26 -23 24 -50 -6
-70 -30 -19 -70 -12 -226 40 -195 65 -334 104 -391 111 -55 6 -58 8 -58 35 0
21 7 30 28 38 68 27 146 28 212 3z"/>
<path d="M4897 8290 c-20 -5 -59 -21 -87 -35 -27 -14 -57 -25 -67 -25 -10 0
-37 -9 -60 -20 -103 -46 -9 -81 152 -57 94 15 111 12 155 -23 40 -32 129 -47
180 -30 l41 14 41 -47 c63 -74 135 -100 158 -58 16 32 12 54 -26 130 -40 81
-60 91 -119 67 -54 -23 -67 -20 -98 19 -15 19 -41 42 -57 50 -36 19 -162 28
-213 15z"/>
<path d="M4897 8083 c-16 -16 -1 -40 94 -153 126 -148 170 -174 198 -114 23
51 14 81 -31 113 -24 16 -56 43 -73 61 -16 17 -45 38 -64 46 -19 8 -41 23 -48
34 -14 19 -62 28 -76 13z"/>
<path d="M5922 7487 c-31 -38 -20 -127 20 -148 29 -16 78 32 78 77 0 60 -67
109 -98 71z"/>
<path d="M5870 5691 c-67 -24 -105 -63 -90 -92 13 -24 21 -24 71 2 68 34 111
14 144 -68 11 -27 26 -45 45 -53 38 -16 64 -1 91 51 13 27 32 45 55 55 31 13
39 13 71 -2 35 -17 93 -85 93 -110 0 -20 41 -44 75 -44 35 0 94 28 108 51 6 9
7 37 2 65 -9 64 -53 106 -139 133 -49 15 -106 21 -267 25 -187 6 -209 5 -259
-13z"/>
<path d="M5488 5505 c-20 -45 29 -165 68 -165 8 0 23 9 35 21 25 25 21 50 -22
119 -34 56 -63 65 -81 25z"/>
<path d="M5350 4720 c-20 -5 -65 -23 -100 -39 -56 -27 -77 -31 -145 -31 l-80
0 -125 -77 c-69 -42 -150 -91 -180 -110 -59 -37 -53 -36 -205 -17 -59 8 -103
-25 -133 -100 l-23 -57 21 -44 c12 -24 38 -55 61 -71 36 -25 47 -27 117 -26
42 1 124 -5 182 -13 173 -26 216 -28 252 -16 43 16 208 41 266 41 52 0 273
-36 317 -51 58 -20 308 -36 427 -27 187 14 220 36 198 128 -11 44 -10 53 4 69
23 25 20 48 -9 76 -22 22 -32 25 -104 25 -45 0 -116 9 -163 20 -46 11 -111 23
-146 26 -48 5 -73 14 -105 38 -23 17 -62 42 -87 56 -60 34 -66 65 -13 75 73
13 121 53 107 89 -3 8 -29 20 -57 26 -68 16 -233 22 -277 10z"/>
<path d="M6429 1538 c-28 -67 -5 -318 29 -318 32 0 82 126 82 206 0 69 -46
144 -88 144 -5 0 -16 -15 -23 -32z"/>
</g>
</svg>
