0
SECTION
2
HEADER
9
$INSUNITS
70
4
9
$ACADVER
1
AC1014
9
$HANDSEED
5
FFFF
0
ENDSEC
0
SECTION
2
TABLES
0
TABLE
2
VPORT
5
8
100
AcDbSymbolTable
0
ENDTAB
0
TABLE
2
LTYPE
5
5
100
AcDbSymbolTable
0
LTYPE
5
14
100
AcDbSymbolTableRecord
100
AcDbLinetypeTableRecord
2
BYBLOCK
70
0
0
LTYPE
5
15
100
AcDbSymbolTableRecord
100
AcDbLinetypeTableRecord
2
BYLAYER
70
0
0
LTYPE
5
16
100
AcDbSymbolTableRecord
100
AcDbLinetypeTableRecord
2
DASHED
70
0
3
Dashed __ __ __ __ __ __ __ __ __ __ __ __ __ _
72
65
73
2
40
0.75
49
0.5
74
0
49
-0.25
74
0
0
ENDTAB
0
TABLE
2
LAYER
5
2
100
AcDbSymbolTable
70
3
0
LAYER
5
50
100
AcDbSymbolTableRecord
100
AcDbLayerTableRecord
2
1
70
0
62
7
6
DASHED
0
LAYER
5
51
100
AcDbSymbolTableRecord
100
AcDbLayerTableRecord
2
0
70
0
62
7
6
CONTINUOUS
0
ENDTAB
0
TABLE
2
STYLE
5
3
100
AcDbSymbolTable
70
1
0
STYLE
5
11
100
AcDbSymbolTableRecord
100
AcDbTextStyleTableRecord
2
STANDARD
70
0
0
ENDTAB
0
TABLE
2
VIEW
5
6
100
AcDbSymbolTable
70
0
0
ENDTAB
0
TABLE
2
UCS
5
7
100
AcDbSymbolTable
70
0
0
ENDTAB
0
TABLE
2
APPID
5
9
100
AcDbSymbolTable
70
2
0
APPID
5
12
100
AcDbSymbolTableRecord
100
AcDbRegAppTableRecord
2
ACAD
70
0
0
ENDTAB
0
TABLE
2
DIMSTYLE
5
A
100
AcDbSymbolTable
70
1
0
ENDTAB
0
TABLE
2
BLOCK_RECORD
5
1
100
AcDbSymbolTable
70
1
0
BLOCK_RECORD
5
1F
100
AcDbSymbolTableRecord
100
AcDbBlockTableRecord
2
*MODEL_SPACE
0
BLOCK_RECORD
5
1B
100
AcDbSymbolTableRecord
100
AcDbBlockTableRecord
2
*PAPER_SPACE
0
ENDTAB
0
ENDSEC
0
SECTION
2
BLOCKS
0
BLOCK
5
20
100
AcDbEntity
100
AcDbBlockBegin
2
*MODEL_SPACE
0
ENDBLK
5
21
100
AcDbEntity
100
AcDbBlockEnd
0
BLOCK
5
1C
100
AcDbEntity
100
AcDbBlockBegin
2
*PAPER_SPACE
0
ENDBLK
5
1D
100
AcDbEntity
100
AcDbBlockEnd
0
ENDSEC
0
SECTION
2
ENTITIES
0
LWPOLYLINE
5
100
100
AcDbEntity
8
0
100
AcDbPolyline
90
6
70
1
43
0.0
10
-228.59999998509889
20
10.525000000000002
42
0.41421356237309503
10
-227.59999998509886
20
11.525000000000002
10
-227.59999998509886
20
26.575000000000003
42
0.41421357110198487
10
-228.60000001490118
20
27.575000000000006
42
0.41421356237309503
10
-229.60000001490118
20
26.575000000000006
10
-229.60000001490118
20
11.525000000000002
42
0.41421357110198487
0
LWPOLYLINE
5
101
100
AcDbEntity
8
0
100
AcDbPolyline
90
6
70
1
43
0.0
10
-228.59999998509889
20
29.574999999999999
42
0.41421356237309503
10
-227.59999998509886
20
30.575000000000003
10
-227.59999998509886
20
45.625000000000007
42
0.41421357110198487
10
-228.60000001490118
20
46.625000000000007
42
0.41421356237309503
10
-229.60000001490118
20
45.625000000000007
10
-229.60000001490118
20
30.575000000000006
42
0.41421357110198487
0
LWPOLYLINE
5
102
100
AcDbEntity
8
0
100
AcDbPolyline
90
6
70
1
43
0.0
10
-96.631249999999994
20
57.150000014901174
42
0.41421357110199525
10
-95.631249999999994
20
56.149999985098844
10
-66.293749999999989
20
56.149999985098844
42
0.41421356237309503
10
-65.293749999999989
20
57.149999985098844
42
0.41421357110199525
10
-66.293749999999989
20
58.150000014901167
10
-95.631249999999994
20
58.150000014901167
42
0.41421356237309503
0
LWPOLYLINE
5
103
100
AcDbEntity
8
0
100
AcDbPolyline
90
6
70
1
43
0.0
10
-1.0000000149011612
20
11.525000000000002
42
0.41421356237309503
10
-1.4901161207725447e-08
20
10.525000000000002
42
0.41421357110199319
10
1.0000000149011612
20
11.525000000000002
10
1.000000014901161
20
26.575000000000003
42
0.41421357110199314
10
-1.4901160954639485e-08
20
27.575000000000006
42
0.41421356237309509
10
-1.0000000149011612
20
26.575000000000006
0
LWPOLYLINE
5
104
100
AcDbEntity
8
0
100
AcDbPolyline
90
6
70
1
43
0.0
10
-163.30625000000001
20
57.149999985098844
42
0.41421356237309503
10
-162.30625000000001
20
56.149999985098844
10
-132.96875
20
56.149999985098844
42
0.41421356237309503
10
-131.96875
20
57.149999985098844
42
0.41421357110199525
10
-132.96875
20
58.150000014901167
10
-162.30625000000001
20
58.150000014901167
42
0.41421357110199525
0
LWPOLYLINE
5
105
100
AcDbEntity
8
0
100
AcDbPolyline
90
6
70
1
43
0.0
10
-1.000000014901161
20
30.575000000000006
42
0.41421357110199325
10
1.4901161318747737e-08
20
29.575000000000003
42
0.41421356237309498
10
1.0000000149011612
20
30.575000000000003
10
1.0000000149011612
20
45.625000000000007
42
0.41421356237309498
10
1.4901161322033526e-08
20
46.625000000000007
42
0.41421357110199325
10
-1.0000000149011612
20
45.625000000000007
0
LWPOLYLINE
5
106
100
AcDbEntity
8
0
100
AcDbPolyline
90
6
70
1
43
0.0
10
25.812500000000014
20
58.150000014901167
42
0.41421357110199525
10
24.812500000000014
20
57.149999985098844
42
0.41421356237309503
10
25.812500000000014
20
56.149999985098844
10
50.38750000000001
20
56.149999985098844
42
0.41421357110199525
10
51.38750000000001
20
57.150000014901174
42
0.41421356237309503
10
50.38750000000001
20
58.150000014901167
0
LWPOLYLINE
5
107
100
AcDbEntity
8
0
100
AcDbPolyline
90
6
70
1
43
0.0
10
-129.96875
20
57.149999985098844
42
0.41421356237309503
10
-128.96875
20
56.149999985098844
10
-99.63124999999998
20
56.149999985098844
42
0.41421357110199525
10
-98.63124999999998
20
57.150000014901174
42
0.41421356237309503
10
-99.63124999999998
20
58.150000014901167
10
-128.96875
20
58.150000014901167
42
0.41421357110199525
0
LWPOLYLINE
5
108
100
AcDbEntity
8
0
100
AcDbPolyline
90
6
70
1
43
0.0
10
-187.11875000000003
20
57.149999985098844
42
0.41421356237309503
10
-186.11875000000001
20
56.149999985098844
10
-166.30625000000003
20
56.149999985098844
42
0.41421356237309503
10
-165.30625000000001
20
57.149999985098844
42
0.41421357110199525
10
-166.30625000000003
20
58.150000014901167
10
-186.11875000000001
20
58.150000014901167
42
0.41421357110199525
0
LWPOLYLINE
5
109
100
AcDbEntity
8
0
100
AcDbPolyline
90
6
70
1
43
0.0
10
-63.293749999999989
20
57.150000014901174
42
0.41421357110199525
10
-62.293749999999989
20
56.149999985098844
10
-42.481249999999982
20
56.149999985098844
42
0.41421356237309503
10
-41.481249999999989
20
57.149999985098844
42
0.41421357110199525
10
-42.481249999999982
20
58.150000014901167
10
-62.293749999999989
20
58.150000014901167
42
0.41421356237309503
0
LWPOLYLINE
5
110
100
AcDbEntity
8
0
100
AcDbPolyline
90
72
70
1
43
0.0
10
-251.41249998509889
20
4.0000000149011603
42
0.41421356237308915
10
-248.41249998509886
20
1.0000000149011423
10
-232.60000001490118
20
1.0000000149011612
42
0.41421356237308915
10
-229.60000001490118
20
4.0000000149011621
10
-229.60000001490118
20
7.5250000000000021
42
-0.41421356237309503
10
-228.60000001490118
20
8.5250000000000163
42
-0.41421357110198487
10
-227.59999998509886
20
7.5250000000000021
10
-227.59999998509886
20
4.0000000149011612
42
0.41421356237308932
10
-224.59999998509886
20
1.0000000149011612
10
-40.09999999999998
20
1.0000000149011576
42
-0.41421356237308982
10
-39.100000000000001
20
1.4901161138336505e-08
10
-39.100000000000001
20
-1.4999999850988406
42
0.41421356237309404
10
-38.100000000000009
20
-2.4999999850988406
10
-19.050000000000004
20
-2.4999999850988393
42
0.41421356237309598
10
-18.050000000000004
20
-1.4999999850988388
10
-18.050000000000004
20
1.4901161077104164e-08
42
-0.41421356237309503
10
-17.050000000000004
20
1.0000000149011612
10
-4.0000000149011612
20
1.0000000149011612
42
0.41421356237309531
10
-1.0000000149011612
20
4.0000000149011612
10
-1.000000014901161
20
7.5250000000000021
42
-0.41421356237309515
10
-1.4901160866501935e-08
20
8.5250000000000021
42
-0.41421357110199308
10
1.0000000149011612
20
7.5250000000000021
10
1.0000000149011612
20
4.0000000149011612
42
0.41421356237309515
10
4.0000000149011594
20
1.0000000149011612
10
57.912499985098847
20
1.0000000149011612
42
0.41421356237309587
10
60.91249998509884
20
4.0000000149011603
10
60.912499985098847
20
53.149999985098844
42
0.41421356237309681
10
57.912499985098847
20
56.149999985098844
10
54.387500000000003
20
56.149999985098844
42
-0.41421357110199525
10
53.38750000000001
20
57.150000014901174
42
-0.41421356237309503
10
54.387500000000003
20
58.150000014901167
10
57.912499985098847
20
58.150000014901167
42
0.41421356237309681
10
60.912499985098847
20
61.150000014901167
10
60.912499985098847
20
72.199999985098842
42
0.41421356237309681
10
57.912499985098847
20
75.199999985098842
10
8.7625000149011711
20
75.199999985098856
42
0.41421356237309792
10
5.76250001490118
20
72.199999985098856
10
5.7625000149011729
20
61.150000014901167
42
0.41421356237309581
10
8.7625000149011729
20
58.150000014901181
10
21.812500000000014
20
58.150000014901181
42
-0.41421356237309503
10
22.812500000000007
20
57.150000014901174
42
-0.41421357110199525
10
21.812500000000014
20
56.149999985098844
10
4.0000000149011612
20
56.149999985098844
42
0.41421356237309576
10
1.0000000149011563
20
53.149999985098844
10
1.0000000149011576
20
49.625
42
-0.41421356237309509
10
1.4901161088546539e-08
20
48.625000000000007
42
-0.41421357110199314
10
-1.0000000149011612
20
49.625
10
-1.0000000149011612
20
53.149999985098844
42
0.41421356237309581
10
-4.0000000149011612
20
56.149999985098837
10
-38.481249999999989
20
56.149999985098844
42
-0.41421357110199525
10
-39.481249999999982
20
57.150000014901174
42
-0.41421356237309503
10
-38.481249999999982
20
58.150000014901167
10
-32.575000014901143
20
58.150000014901167
42
0.41421356237309681
10
-29.575000014901143
20
61.150000014901167
10
-29.575000014901143
20
76.962499985098844
42
0.41421356237309681
10
-32.575000014901136
20
79.962499985098844
10
-196.02499998509884
20
79.962499985098844
42
0.41421356237308982
10
-199.02499998509882
20
76.962499985098859
10
-199.02499998509884
20
61.150000014901167
42
0.41421356237308898
10
-196.02499998509884
20
58.150000014901153
10
-190.11875000000003
20
58.150000014901188
42
-0.41421357110199525
10
-189.11875000000003
20
57.149999985098844
42
-0.41421356237309503
10
-190.11875000000003
20
56.149999985098844
10
-224.59999998509886
20
56.149999985098844
42
0.41421356237308898
10
-227.59999998509883
20
53.149999985098844
10
-227.59999998509892
20
49.625
42
-0.41421356237309503
10
-228.59999998509889
20
48.624999999999986
42
-0.41421357110198487
10
-229.60000001490118
20
49.625
10
-229.60000001490118
20
53.149999985098844
42
0.41421356237308898
10
-232.60000001490118
20
56.149999985098866
10
-248.41249998509886
20
56.149999985098844
42
0.41421356237308898
10
-251.41249998509886
20
53.149999985098844
0
ENDSEC
0
SECTION
2
OBJECTS
0
DICTIONARY
5
C
100
AcDbDictionary
3
ACAD_GROUP
350
D
3
ACAD_MLINESTYLE
350
17
0
DICTIONARY
5
D
100
AcDbDictionary
0
DICTIONARY
5
1A
330
C
100
AcDbDictionary
0
DICTIONARY
5
17
100
AcDbDictionary
0
ENDSEC
0
EOF
